<svg width="32" height="32" viewBox="0 0 32 32" fill="none" xmlns="http://www.w3.org/2000/svg">
<path d="M2 16.2856C2 13.081 2 11.4794 2.728 10.1522C3.4532 8.8236 4.7818 8.0004 7.4376 6.3512L10.2376 4.6138C13.0446 2.8708 14.4488 2 16 2C17.5512 2 18.954 2.8708 21.7624 4.6138L24.5624 6.3512C27.2182 8.0004 28.5468 8.8236 29.2734 10.1522C30 11.4808 30 13.081 30 16.2842V18.415C30 23.875 30 26.6064 28.3592 28.3032C26.7184 30 24.0794 30 18.8 30H13.2C7.9206 30 5.2802 30 3.6408 28.3032C2.0014 26.6064 2 23.8764 2 18.415V16.2856Z" stroke="black" stroke-width="3"/>
<path d="M11.8 21.6C12.99 22.482 14.439 23 16 23C17.561 23 19.01 22.482 20.2 21.6" stroke="black" stroke-width="3" stroke-linecap="round"/>
</svg>