<svg width="23" height="28" viewBox="0 0 23 28" fill="none" xmlns="http://www.w3.org/2000/svg">
<path d="M18.6875 0H1.4375C1.05625 0 0.690618 0.1475 0.421034 0.41005C0.151451 0.672601 0 1.0287 0 1.4V26.6C0 26.9713 0.151451 27.3274 0.421034 27.59C0.690618 27.8525 1.05625 28 1.4375 28H18.6875C19.8312 28 20.9281 27.5575 21.7369 26.7698C22.5456 25.9822 23 24.9139 23 23.8V4.2C23 3.08609 22.5456 2.0178 21.7369 1.23015C20.9281 0.442499 19.8312 0 18.6875 0ZM5.75 25.2H2.875V2.8H5.75V25.2ZM20.125 23.8C20.125 24.1713 19.9736 24.5274 19.704 24.79C19.4344 25.0525 19.0687 25.2 18.6875 25.2H8.625V2.8H18.6875C19.0687 2.8 19.4344 2.9475 19.704 3.21005C19.9736 3.4726 20.125 3.8287 20.125 4.2V23.8Z" fill="black"/>
</svg>
