<svg width="32" height="32" viewBox="0 0 32 32" fill="none" xmlns="http://www.w3.org/2000/svg">
<path d="M9 23V14.25M16 23V9M23 23V19.5M26.5 2H5.5C4.57174 2 3.6815 2.36875 3.02513 3.02513C2.36875 3.6815 2 4.57174 2 5.5V26.5C2 27.4283 2.36875 28.3185 3.02513 28.9749C3.6815 29.6313 4.57174 30 5.5 30H26.5C27.4283 30 28.3185 29.6313 28.9749 28.9749C29.6313 28.3185 30 27.4283 30 26.5V5.5C30 4.57174 29.6313 3.6815 28.9749 3.02513C28.3185 2.36875 27.4283 2 26.5 2Z" stroke="black" stroke-width="3" stroke-linecap="round" stroke-linejoin="round"/>
</svg>
