<svg width="33" height="32" viewBox="0 0 33 32" fill="none" xmlns="http://www.w3.org/2000/svg">
<path d="M2 26.3158C2 24.3616 2.77631 22.4874 4.15816 21.1055C5.54001 19.7237 7.41419 18.9474 9.36842 18.9474H24.1053C26.0595 18.9474 27.9337 19.7237 29.3155 21.1055C30.6974 22.4874 31.4737 24.3616 31.4737 26.3158C31.4737 27.2929 31.0855 28.23 30.3946 28.9209C29.7037 29.6118 28.7666 30 27.7895 30H5.68421C4.7071 30 3.77 29.6118 3.07908 28.9209C2.38816 28.23 2 27.2929 2 26.3158Z" stroke="black" stroke-width="3" stroke-linejoin="round"/>
<path d="M16.7369 13.0526C19.789 13.0526 22.2632 10.5784 22.2632 7.52632C22.2632 4.47422 19.789 2 16.7369 2C13.6848 2 11.2106 4.47422 11.2106 7.52632C11.2106 10.5784 13.6848 13.0526 16.7369 13.0526Z" stroke="black" stroke-width="3"/>
</svg>
