<svg width="26" height="24" viewBox="0 0 26 24" fill="none" xmlns="http://www.w3.org/2000/svg">
<rect x="0.580078" y="0.5" width="24.6089" height="23" rx="6.5" stroke="white"/>
<path d="M15.9962 15.0994C16.1167 15.0057 16.2262 14.8962 16.4445 14.6779L19.1695 11.9523C19.2356 11.8868 19.2053 11.7732 19.1179 11.7422C18.6911 11.5943 18.3039 11.3507 17.9857 11.0302C17.6651 10.712 17.4216 10.3248 17.2737 9.89801C17.2427 9.81056 17.1291 9.78026 17.0636 9.84637L14.3373 12.5714C14.119 12.7897 14.0095 12.8992 13.9158 13.0197C13.8043 13.1624 13.7097 13.3153 13.6321 13.4783C13.5667 13.616 13.5178 13.7634 13.42 14.0568L13.2933 14.4355L13.0922 15.0381L12.9042 15.6028C12.8807 15.6736 12.8774 15.7495 12.8946 15.822C12.9118 15.8946 12.9489 15.9609 13.0016 16.0136C13.0543 16.0663 13.1206 16.1034 13.1932 16.1206C13.2657 16.1378 13.3416 16.1345 13.4124 16.111L13.9771 15.923L14.5797 15.7219L14.9584 15.5952C15.2518 15.4974 15.3992 15.4492 15.5369 15.3831C15.6999 15.3051 15.8534 15.2105 15.9962 15.0994ZM20.0235 11.099C20.3028 10.8196 20.4597 10.4406 20.4596 10.0455C20.4596 9.65036 20.3026 9.27144 20.0231 8.99209C19.7437 8.71274 19.3647 8.55584 18.9696 8.55591C18.5744 8.55597 18.1955 8.713 17.9162 8.99244L17.8294 9.08059C17.7875 9.12155 17.7563 9.17217 17.7386 9.228C17.7208 9.28383 17.717 9.34317 17.7275 9.40081C17.7413 9.47449 17.7654 9.5833 17.8101 9.71208C17.8997 9.97032 18.0691 10.3091 18.3879 10.628C18.7068 10.9468 19.0456 11.1162 19.3038 11.2058C19.4333 11.2505 19.5414 11.2746 19.6151 11.2884C19.6727 11.2983 19.7319 11.2942 19.7876 11.2765C19.8433 11.2587 19.894 11.2279 19.9353 11.1865L20.0235 11.099Z" fill="white"/>
<path fill-rule="evenodd" clip-rule="evenodd" d="M7.49362 5.92038C6.68652 6.72679 6.68652 8.02558 6.68652 10.6225V13.3771C6.68652 15.974 6.68652 17.2728 7.49362 18.0792C8.30072 18.8856 9.59883 18.8863 12.1957 18.8863H13.573C16.1699 18.8863 17.4687 18.8863 18.2751 18.0792C19.0691 17.2859 19.0822 16.016 19.0822 13.501L17.1416 15.4417C16.9557 15.6276 16.8035 15.7798 16.632 15.9141C16.4309 16.0716 16.2128 16.2063 15.9819 16.3156C15.7706 16.4106 15.5535 16.4923 15.3318 16.56L13.7397 17.091C13.4869 17.1753 13.2157 17.1875 12.9564 17.1263C12.6971 17.0651 12.4599 16.9329 12.2716 16.7445C12.0832 16.5561 11.951 16.319 11.8898 16.0597C11.8286 15.8004 11.8408 15.5291 11.9251 15.2764L12.1138 14.7117L12.4409 13.7297L12.4553 13.6842C12.5387 13.4349 12.6069 13.2311 12.7005 13.0341C12.8107 12.8028 12.9445 12.5863 13.102 12.3847C13.2363 12.2126 13.3885 12.0611 13.5744 11.8751L16.3331 9.11572L17.0989 8.34994L17.1864 8.26248C17.4204 8.02776 17.6985 7.84163 18.0047 7.71482C18.311 7.588 18.6392 7.523 18.9707 7.52356C18.8667 6.81425 18.6649 6.30947 18.2751 5.92038C17.4687 5.11328 16.1699 5.11328 13.573 5.11328H12.1957C9.59883 5.11328 8.30003 5.11328 7.49362 5.92038ZM9.61329 9.93384C9.61329 9.79685 9.6677 9.66548 9.76456 9.56862C9.86142 9.47176 9.9928 9.41735 10.1298 9.41735H14.606C14.743 9.41735 14.8744 9.47176 14.9712 9.56862C15.0681 9.66548 15.1225 9.79685 15.1225 9.93384C15.1225 10.0708 15.0681 10.2022 14.9712 10.299C14.8744 10.3959 14.743 10.4503 14.606 10.4503H10.1298C9.9928 10.4503 9.86142 10.3959 9.76456 10.299C9.6677 10.2022 9.61329 10.0708 9.61329 9.93384ZM9.61329 12.6884C9.61329 12.5515 9.6677 12.4201 9.76456 12.3232C9.86142 12.2264 9.9928 12.1719 10.1298 12.1719H11.8514C11.9884 12.1719 12.1198 12.2264 12.2166 12.3232C12.3135 12.4201 12.3679 12.5515 12.3679 12.6884C12.3679 12.8254 12.3135 12.9568 12.2166 13.0536C12.1198 13.1505 11.9884 13.2049 11.8514 13.2049H10.1298C9.9928 13.2049 9.86142 13.1505 9.76456 13.0536C9.6677 12.9568 9.61329 12.8254 9.61329 12.6884ZM9.61329 15.443C9.61329 15.3061 9.6677 15.1747 9.76456 15.0778C9.86142 14.981 9.9928 14.9266 10.1298 14.9266H11.1628C11.2997 14.9266 11.4311 14.981 11.528 15.0778C11.6248 15.1747 11.6792 15.3061 11.6792 15.443C11.6792 15.58 11.6248 15.7114 11.528 15.8083C11.4311 15.9051 11.2997 15.9595 11.1628 15.9595H10.1298C9.9928 15.9595 9.86142 15.9051 9.76456 15.8083C9.6677 15.7114 9.61329 15.58 9.61329 15.443Z" fill="white"/>
</svg>
