<svg width="16" height="16" viewBox="0 0 16 16" fill="none" xmlns="http://www.w3.org/2000/svg">
<path d="M9.11462 1.22024C9.48434 0.838194 9.92641 0.53356 10.4151 0.324086C10.9037 0.114612 11.4291 0.00448929 11.9608 0.000134421C12.4924 -0.00422045 13.0196 0.09728 13.5116 0.298721C14.0036 0.500161 14.4506 0.797513 14.8266 1.17345C15.2025 1.54938 15.4998 1.99638 15.7013 2.48839C15.9027 2.9804 16.0042 3.50758 15.9999 4.03922C15.9955 4.57085 15.8854 5.0963 15.6759 5.58494C15.4664 6.07359 15.1618 6.51566 14.7798 6.88538L6.83844 14.8267C6.08719 15.578 5.06828 16 4.00586 16C2.94344 16 1.92453 15.578 1.17329 14.8267C0.422045 14.0755 0 13.0566 0 11.9941C0 10.9317 0.422045 9.91281 1.17329 9.16156L9.11462 1.22024ZM14.0779 1.92205C13.5128 1.35703 12.7463 1.03962 11.9472 1.03962C11.148 1.03962 10.3816 1.35703 9.81643 1.92205L6.19618 5.54131L10.4577 9.80283L14.0779 6.18357C14.3578 5.90379 14.5799 5.57162 14.7313 5.20601C14.8828 4.84041 14.9608 4.44855 14.9608 4.05281C14.9608 3.65707 14.8828 3.2652 14.7313 2.8996C14.5799 2.534 14.3578 2.20183 14.0779 1.92205ZM6.83844 12.1396C6.74536 12.0465 6.61914 11.9942 6.48753 11.9942C6.35592 11.9942 6.2297 12.0465 6.13662 12.1396L4.64762 13.6286C4.56336 13.7129 4.46332 13.7798 4.3532 13.8254C4.24309 13.871 4.12506 13.8945 4.00586 13.8945C3.88667 13.8945 3.76864 13.871 3.65852 13.8254C3.54841 13.7798 3.44836 13.7129 3.3641 13.6286C3.29513 13.558 3.20663 13.5098 3.11 13.4899C3.01337 13.4701 2.91301 13.4797 2.82185 13.5174C2.73069 13.555 2.65288 13.6191 2.59844 13.7014C2.544 13.7837 2.51542 13.8803 2.51637 13.979C2.51638 14.045 2.52955 14.1103 2.55512 14.1712C2.58068 14.232 2.61813 14.2872 2.66527 14.3334C3.02186 14.6884 3.50475 14.8875 4.00797 14.887C4.51119 14.8864 4.99363 14.6862 5.34944 14.3304L6.83844 12.8414C6.93148 12.7483 6.98375 12.6221 6.98375 12.4905C6.98375 12.3589 6.93148 12.2326 6.83844 12.1396Z" fill="black"/>
</svg>
