<svg width="11" height="13" viewBox="0 0 11 13" fill="none" xmlns="http://www.w3.org/2000/svg">
<path d="M5.9663 0.366583L10.7326 5.13286C10.8298 5.2301 10.8844 5.36198 10.8844 5.4995C10.8844 5.63701 10.8298 5.76889 10.7326 5.86613C10.6353 5.96337 10.5035 6.018 10.3659 6.018C10.2284 6.018 10.0965 5.96337 9.9993 5.86613L6.118 1.98482L6.11845 12.4656C6.11845 12.6032 6.0638 12.7351 5.9665 12.8324C5.86921 12.9297 5.73725 12.9844 5.59966 12.9844C5.46207 12.9844 5.33011 12.9297 5.23282 12.8324C5.13553 12.7351 5.08087 12.6032 5.08087 12.4656L5.08133 1.98483L1.20002 5.86613C1.10279 5.96337 0.970902 6.018 0.833387 6.018C0.695871 6.018 0.563988 5.96337 0.46675 5.86613C0.369512 5.76889 0.314885 5.63701 0.314885 5.4995C0.314885 5.36198 0.369512 5.2301 0.46675 5.13286L5.23303 0.366583C5.33026 0.269345 5.46215 0.214717 5.59966 0.214717C5.73718 0.214717 5.86906 0.269345 5.9663 0.366583Z" fill="black"/>
</svg>
